<svg width="24" height="19" viewBox="0 0 24 19" fill="none" xmlns="http://www.w3.org/2000/svg">
<path d="M16.0002 12L12.0002 8L8.00024 12" stroke="#717171" stroke-width="2" stroke-linecap="round" stroke-linejoin="round"/>
<path d="M17.0002 17H18.5002C20.9852 17 23.0002 14.985 23.0002 12.5C23.0002 10.185 21.2452 8.301 18.9972 8.05C18.9982 8.033 19.0002 8.017 19.0002 8C19.0002 4.134 15.8662 1 12.0002 1C8.13424 1 5.00024 4.134 5.00024 8C5.00024 8.017 5.00224 8.033 5.00324 8.05C2.75524 8.301 1.00024 10.185 1.00024 12.5C1.00024 14.985 3.01524 17 5.50024 17H7.00024" stroke="#717171" stroke-width="2" stroke-linecap="round" stroke-linejoin="round"/>
<path d="M12.0002 8V18" stroke="#717171" stroke-width="2" stroke-linecap="round" stroke-linejoin="round"/>
</svg>
