<svg width="108" height="35" viewBox="0 0 108 35" fill="none" xmlns="http://www.w3.org/2000/svg">
<path d="M37.3088 32.335V34H25.5188V32.335L27.7238 32.425C28.3238 32.425 28.6238 32.095 28.6238 31.435V11.455L18.2738 34.45H16.8338L5.26877 10.285V31.435C5.26877 32.095 5.55377 32.425 6.12377 32.425L8.32877 32.335V34H0.76877V32.335L2.52377 32.425C3.12377 32.425 3.42377 32.095 3.42377 31.435V8.98C3.42377 8.77 3.27377 8.68 2.97377 8.71L1.08377 8.8V7.135H10.3538L19.8038 26.755L28.6688 7.135H37.0838V8.8L35.6888 8.71H35.5988C35.3588 8.71 35.1638 8.8 35.0138 8.98C34.8638 9.16 34.7888 9.37 34.7888 9.61V31.435C34.7888 32.155 35.0888 32.485 35.6888 32.425L37.3088 32.335ZM67.4943 32.335V34H53.9943V32.335L56.0643 32.425C56.9643 32.515 57.4143 32.155 57.4143 31.345C57.4143 30.835 57.2643 30.25 56.9643 29.59L55.2993 25.63H45.3993L43.8693 29.32C43.4493 30.25 43.2393 31 43.2393 31.57C43.2393 32.2 43.5693 32.5 44.2293 32.47L46.2543 32.335V34H38.1093V32.335L39.4143 32.425H39.5943C40.1943 32.425 40.6893 32.14 41.0793 31.57C41.5293 30.91 41.9793 30.04 42.4293 28.96L51.6993 6.685H53.9043L63.2643 29.05C63.6843 30.13 64.1193 30.985 64.5693 31.615C64.9893 32.155 65.5143 32.425 66.1443 32.425H66.3693L67.4943 32.335ZM46.0293 24.055H54.6693L50.3043 13.705L46.0293 24.055ZM47.5143 2.545V0.429998H58.2693V2.545H47.5143ZM68.3619 32.335L70.1169 32.425H70.1619C70.3719 32.425 70.5219 32.335 70.6119 32.155C70.7319 31.945 70.7919 31.705 70.7919 31.435V9.655C70.7919 9.385 70.7169 9.16 70.5669 8.98C70.4169 8.8 70.2069 8.71 69.9369 8.71L68.3619 8.8V7.135H79.3419C84.3519 7.135 88.0269 8.17 90.3669 10.24C92.7369 12.31 93.9219 15.745 93.9219 20.545C93.9219 24.985 92.7669 28.345 90.4569 30.625C88.1769 32.875 84.6519 34 79.8819 34H68.3619V32.335ZM77.0019 31.795C77.0019 32.185 77.1819 32.38 77.5419 32.38H78.5769C80.7369 32.38 82.4169 32.05 83.6169 31.39C84.8469 30.73 85.7319 29.56 86.2719 27.88C86.8419 26.2 87.1269 23.77 87.1269 20.59C87.1269 17.44 86.8419 15.01 86.2719 13.3C85.7319 11.59 84.8469 10.405 83.6169 9.745C82.4169 9.055 80.7369 8.71 78.5769 8.71H77.5419C77.1819 8.71 77.0019 8.905 77.0019 9.295V31.795ZM96.8824 32.335L98.4574 32.425H98.5474C99.0574 32.425 99.3124 32.095 99.3124 31.435V9.655C99.3124 9.385 99.2374 9.16 99.0874 8.98C98.9374 8.77 98.7274 8.68 98.4574 8.71L96.8824 8.8V7.135H107.997V8.8L106.422 8.71H106.332C106.092 8.71 105.897 8.8 105.747 8.98C105.597 9.16 105.522 9.385 105.522 9.655V31.435C105.522 32.155 105.822 32.485 106.422 32.425L107.997 32.335V34H96.8824V32.335Z" fill="black"/>
</svg>
