<svg width="60" height="29" viewBox="0 0 60 29" fill="none" xmlns="http://www.w3.org/2000/svg">
<path d="M123.378 4.33669C123.505 4.20955 123.695 4.10362 123.865 4.10362C124.501 4.10362 124.818 5.18423 124.818 6.28602C124.649 6.32839 124.056 6.41314 122.7 6.47671C122.763 5.69274 122.932 4.82402 123.378 4.33669ZM127.022 9.1041C126.577 9.50665 125.984 9.82448 125.179 9.82448C123.611 9.82448 122.7 8.74384 122.7 6.6886H126.938C126.98 6.60384 126.98 6.45553 126.98 6.18007C126.98 4.86639 125.942 3.76461 124.013 3.76461C121.979 3.76461 120.284 5.43848 120.284 7.85391C120.284 9.84563 121.598 11.4984 123.653 11.4984C125.327 11.4984 126.408 10.5449 127.065 9.14639L127.022 9.1041ZM121.131 4.146V4.10362H118.334V4.146L118.694 4.37907C119.055 4.56976 119.288 4.78164 119.288 4.97234C119.288 5.24778 118.928 6.43433 118.694 7.11237L118.101 8.74384H118.059L116.703 5.05709C116.618 4.86641 116.618 4.65452 116.618 4.61214C116.618 4.485 116.703 4.42144 117.063 4.33669L117.465 4.25193V4.1248H112.867V4.25193L113.143 4.33669C113.545 4.42144 113.63 4.46382 113.863 5.01471L116.66 11.3712H117.338L119.818 5.60798C120.135 4.88758 120.305 4.73927 120.708 4.42145L121.131 4.146ZM112.041 10.7356V5.14185C112.041 5.01471 112.041 4.3155 112.083 3.74341L112.041 3.70103L108.798 4.78164V4.82402L109.243 5.37491C109.371 5.56562 109.371 5.69275 109.371 5.96819V10.778C109.371 11.011 109.328 11.0534 108.968 11.1381L108.735 11.1805V11.3077H112.697V11.1805L112.464 11.1381C112.041 11.011 112.041 10.9687 112.041 10.7356ZM110.706 3.19252C111.553 3.19252 112.189 2.55686 112.189 1.83646C112.189 1.11606 111.596 0.522775 110.833 0.522775C109.943 0.522775 109.265 1.20081 109.265 1.87884C109.265 2.59925 109.943 3.19252 110.706 3.19252ZM107.315 10.0152C106.997 10.0152 106.679 9.97276 106.51 9.78206C106.34 9.59136 106.234 9.33709 106.234 8.9134V5.26898H108.269L108.438 4.08243H106.234L106.277 2.17548H106.234C105.344 3.00182 104.031 4.08243 102.674 5.07828V5.26898H103.564V9.31595C103.564 10.0787 103.692 10.5873 104.094 10.9898C104.454 11.3501 104.984 11.5408 105.768 11.5408C107.167 11.5408 108.057 10.7144 108.608 9.6762L108.565 9.63378C108.184 9.8669 107.739 10.0152 107.315 10.0152ZM99.3263 4.146C99.4534 4.146 99.4958 4.18837 99.6018 4.37907L100.598 6.20127C100.831 6.60384 100.958 6.64623 101.191 6.64623C101.721 6.64623 102.399 6.20126 102.399 5.4173C102.399 4.46382 101.318 3.82816 99.8348 3.82816C97.3556 3.82816 95.8298 5.73512 95.8298 7.87518C95.8298 9.82448 97.0801 11.5195 99.2415 11.5195C100.64 11.5195 101.721 10.7991 102.335 9.4855L102.293 9.44308C101.89 9.84563 101.403 10.0787 100.725 10.0787C99.1991 10.0787 98.2032 8.76512 98.2032 6.85811C98.1396 5.09947 98.8177 4.146 99.3263 4.146ZM91.401 4.33669C91.5282 4.20955 91.7189 4.10362 91.8884 4.10362C92.5241 4.10362 92.8419 5.18423 92.8419 6.28602C92.6725 6.32839 92.0791 6.41314 90.7229 6.47671C90.7652 5.69274 90.9561 4.82402 91.401 4.33669ZM95.0457 9.1041C94.6008 9.50665 94.0074 9.82448 93.2022 9.82448C91.6342 9.82448 90.7229 8.74384 90.7229 6.6886H94.961C95.0034 6.60384 95.0034 6.45553 95.0034 6.18007C95.0034 4.86639 93.9651 3.76461 92.0367 3.76461C90.0024 3.76461 88.3071 5.43848 88.3071 7.85391C88.3071 9.84563 89.621 11.4984 91.6764 11.4984C93.3506 11.4984 94.4312 10.5449 95.0882 9.14639L95.0457 9.1041ZM87.3959 10.7356V1.7517C87.3959 1.62458 87.3959 0.925361 87.4384 0.353271H87.3959L84.1539 1.3915V1.43388L84.5989 1.98479C84.726 2.17548 84.726 2.30261 84.726 2.57805V10.7356C84.726 10.9687 84.6836 11.011 84.3233 11.0958L84.0903 11.1381V11.2652H88.0529V11.1381L87.8198 11.0958C87.4384 11.011 87.3959 10.9687 87.3959 10.7356ZM82.9884 10.7356V1.7517C82.9884 1.62458 82.9884 0.925361 83.0307 0.353271L79.7886 1.3915V1.43388L80.2336 1.98479C80.3608 2.17548 80.3608 2.30261 80.3608 2.57805V10.7356C80.3608 10.9687 80.3184 11.011 79.9581 11.0958L79.725 11.1381V11.2652H83.6877V11.1381L83.4545 11.0958C83.0731 11.011 82.9884 10.9687 82.9884 10.7356ZM76.4192 10.7356C76.3345 10.9687 76.1438 11.2441 75.7836 11.2441C74.9784 11.2441 74.5334 9.37951 74.5334 7.43019C74.5334 6.47671 74.5757 5.33253 74.9359 4.65451C75.0208 4.42144 75.2115 4.146 75.5716 4.146C76.377 4.146 76.8219 6.01057 76.8219 7.9599C76.8219 8.9134 76.7372 10.0576 76.4192 10.7356ZM75.7412 3.82816C74.5334 3.82816 73.5798 4.23075 72.8169 5.01471C72.2236 5.60799 71.7362 6.60384 71.7362 7.74805C71.7362 9.69735 73.1348 11.5195 75.5505 11.5195C76.7584 11.5195 77.7119 11.117 78.4748 10.333C79.0682 9.73977 79.5555 8.74384 79.5555 7.59964C79.5555 5.69275 78.1781 3.82816 75.7412 3.82816ZM68.6847 10.3753C68.0913 10.9687 67.604 11.2441 67.0743 11.2441C65.4638 11.2441 64.4255 8.89213 64.4255 5.88344C64.4255 2.47211 65.591 0.967743 66.9471 0.967743C67.5404 0.967743 67.9431 1.15843 68.5152 1.73052C69.151 2.36618 69.7231 3.31964 70.4859 4.6757H70.6131C70.5707 3.63748 70.4436 1.7729 70.3376 0.713475H70.2529L70.1257 0.904176C70.0409 1.03131 69.9986 1.09486 69.8502 1.09486C69.5748 1.09486 68.1338 0.692291 67.053 0.692291C63.3659 0.692291 61.3316 3.15014 61.3316 6.24364C61.3316 9.65493 63.6201 11.5619 66.9047 11.5619C67.7524 11.5619 69.151 11.2865 70.5071 10.6509C70.5919 10.4602 70.9097 8.23531 70.9521 7.15474L70.8674 7.11237C70.0198 8.63799 69.2992 9.73977 68.6847 10.3753ZM54.9533 4.33669C55.0804 4.20955 55.2711 4.10362 55.4406 4.10362C56.0763 4.10362 56.3941 5.18423 56.3941 6.28602C56.2247 6.32839 55.6313 6.41314 54.2752 6.47671C54.3176 5.69274 54.5083 4.82402 54.9533 4.33669ZM58.5981 9.1041C58.153 9.50665 57.5598 9.82448 56.7544 9.82448C55.1864 9.82448 54.2752 8.74384 54.2752 6.6886H58.5133C58.5557 6.60384 58.5557 6.45553 58.5557 6.18007C58.5557 4.86639 57.5173 3.76461 55.5889 3.76461C53.5547 3.76461 51.8594 5.43848 51.8594 7.85391C51.8594 9.84563 53.1733 11.4984 55.2287 11.4984C56.9028 11.4984 57.9834 10.5449 58.6404 9.14639L58.5981 9.1041ZM49.5073 6.01057C49.8251 6.01057 50.4609 6.20126 51.1177 6.56146C51.5204 6.11651 51.7958 5.52323 51.7958 4.84521C51.7958 4.25193 51.478 3.76461 50.7999 3.76461C49.9947 3.76461 49.1259 4.71809 48.7232 6.22246L48.6385 6.18007L48.6809 4.90877C48.6809 4.63332 48.7232 4.3155 48.7656 3.67986L48.7232 3.63748L45.4387 4.71807V4.76046L45.8837 5.31135C46.0108 5.43848 46.0108 5.62918 46.0108 5.90463V10.7144C46.0108 10.9474 45.9684 10.9898 45.6082 11.0745L45.3752 11.117V11.2441H49.6557V11.117L49.1683 11.0745C48.7656 11.0323 48.7232 10.9898 48.7232 10.7144V6.70978C48.8716 6.32839 49.1047 6.01057 49.5073 6.01057ZM44.464 10.7356V5.14185C44.464 5.01471 44.464 4.3155 44.5063 3.74341H44.464L41.2218 4.78164V4.82402L41.6668 5.37491C41.7939 5.56562 41.7939 5.69275 41.7939 5.96819V10.778C41.7939 11.011 41.7516 11.0534 41.3913 11.1381L41.1582 11.1805V11.3077H45.1209V11.1805L44.8878 11.1381C44.5275 11.011 44.464 10.9687 44.464 10.7356ZM43.1289 3.19252C43.9766 3.19252 44.6122 2.55686 44.6122 1.83646C44.6122 1.11606 44.019 0.522775 43.2561 0.522775C42.3661 0.522775 41.6879 1.20081 41.6879 1.87884C41.6879 2.59925 42.3661 3.19252 43.1289 3.19252ZM37.4075 10.227C37.2804 10.3119 37.1744 10.3542 36.9624 10.3542C36.5599 10.3542 36.1996 9.95162 36.1996 9.20996C36.1996 8.80741 36.2843 8.532 36.5175 8.29888C36.7506 8.06588 36.9201 7.98104 37.3651 7.70563V10.2059H37.4075V10.227ZM41.0947 10.333C40.8615 10.4601 40.7344 10.5237 40.6073 10.5237C40.4801 10.5237 40.3317 10.4813 40.2046 10.3966C40.0775 10.2694 39.9715 10.0787 39.9715 9.57021V6.03175C39.9715 5.31135 39.8868 4.76046 39.4841 4.35787C39.124 3.99768 38.5306 3.80698 37.7677 3.80698C36.5175 3.80698 35.0766 4.76046 34.3561 5.48086C33.9534 5.88344 33.7627 6.20126 33.7627 6.47671C33.7627 6.83692 34.0382 7.06998 34.6527 7.06998C35.1401 7.06998 35.8605 6.8793 36.1785 6.70978L35.7334 5.12066C35.9029 4.92996 36.0936 4.88759 36.3692 4.88759C36.6446 4.88759 36.8989 4.92996 37.0473 5.12066C37.2804 5.31135 37.3651 5.79869 37.3651 6.79453V7.55735L36.1149 7.9599C34.801 8.40486 34.3561 8.59556 34.0382 8.95569C33.8051 9.18881 33.678 9.50665 33.678 9.82448C33.678 10.6509 34.2712 11.4137 35.2884 11.4137C36.0089 11.4137 36.4539 11.1381 37.132 10.5449L37.3651 10.3542H37.4075C37.6829 11.0323 38.255 11.4348 39.0815 11.4348C40.1199 11.4348 40.8827 10.7144 41.1582 10.2906H41.0947V10.333ZM32.6396 10.7356V5.14185C32.6396 5.01471 32.6396 4.3155 32.6819 3.74341L32.6396 3.70103L29.3975 4.73927V4.78164L29.8424 5.33254C29.9696 5.52323 29.9696 5.65037 29.9696 5.92582V10.7356C29.9696 10.9687 29.9273 11.011 29.567 11.0958L29.3339 11.1381V11.2652H33.3389V11.1381L33.1057 11.0958C32.6396 11.011 32.6396 10.9687 32.6396 10.7356ZM31.2834 3.19252C32.131 3.19252 32.7668 2.55686 32.7668 1.83646C32.7668 1.11606 32.1734 0.522775 31.4106 0.522775C30.5205 0.522775 29.8424 1.20081 29.8424 1.87884C29.8424 2.59925 30.5205 3.19252 31.2834 3.19252ZM27.9142 10.0152C27.5962 10.0152 27.2784 9.97276 27.1089 9.78206C26.9394 9.59136 26.8334 9.33709 26.8334 8.9134V5.26898H28.8677L29.0372 4.08243H26.8334L26.9181 2.13309H26.8758C25.9857 2.95944 24.672 4.04005 23.3158 5.03591V5.2266H24.2057V9.27353C24.2057 10.0363 24.3329 10.5449 24.7355 10.9474C25.0958 11.3077 25.6255 11.4984 26.4096 11.4984C27.8082 11.4984 28.6981 10.672 29.2491 9.63378L29.2068 9.59136C28.7617 9.8669 28.3167 10.0152 27.9142 10.0152ZM20.5398 6.32839C19.8194 5.92582 19.3743 5.56562 19.3743 4.97234C19.3743 4.56976 19.6498 4.20956 20.1795 4.20956C20.7093 4.20956 21.1756 4.485 22.5742 6.43434L22.6589 6.39196C22.6589 5.947 22.6164 4.61214 22.5742 4.29432C22.0868 4.10362 21.2603 3.84936 20.2855 3.84936C18.5691 3.84936 17.4036 4.84521 17.4036 6.11651C17.4036 7.51494 18.4843 8.06588 19.6074 8.74384C20.561 9.33709 21.0484 9.73977 21.0484 10.333C21.0484 10.778 20.7729 11.1594 20.2431 11.1594C19.5227 11.1594 18.7598 10.3966 17.3189 8.48958L17.234 8.532C17.234 9.25238 17.3612 10.4389 17.4671 11.0323C18.1452 11.3077 19.0776 11.4772 19.9465 11.4772C21.7901 11.4772 23.0403 10.566 23.0403 9.01926C23.0191 7.74805 21.8959 7.0488 20.5398 6.32839ZM12.8052 4.33669C12.9324 4.20955 13.1231 4.10362 13.2926 4.10362C13.9283 4.10362 14.2463 5.18423 14.2463 6.28602C14.0767 6.32839 13.4833 6.41314 12.1271 6.47671C12.1695 5.69274 12.3391 4.82402 12.8052 4.33669ZM16.4501 9.1041C16.005 9.50665 15.4117 9.82448 14.6064 9.82448C13.0384 9.82448 12.1271 8.74384 12.1271 6.6886H16.3652C16.4077 6.60384 16.4077 6.45553 16.4077 6.18007C16.4077 4.86639 15.3693 3.76461 13.4409 3.76461C11.4067 3.76461 9.71142 5.43848 9.71142 7.85391C9.71142 9.84563 11.0252 11.4984 13.0808 11.4984C14.7548 11.4984 15.8356 10.5449 16.4924 9.14639L16.4501 9.1041ZM10.9193 1.2432L11.4491 1.01011V0.92536H7.40165V1.01011L8.03737 1.28556C8.67308 1.56102 8.80023 1.64577 8.80023 1.92121C8.80023 2.36616 8.35523 3.87055 8.27047 4.18837L6.91426 8.40486L4.75284 2.47211C4.62569 2.06954 4.58331 1.79409 4.58331 1.64577C4.58331 1.45507 4.66807 1.28556 5.21903 1.20081L5.74879 1.11606V0.92536H-0.0786133V1.05249L0.0909114 1.09486C0.980915 1.28556 1.12925 1.45507 2.06163 3.82816L5.15545 11.4984H6.00308L9.0969 3.82816C9.92332 1.96359 10.0929 1.64577 10.9193 1.2432Z" fill="black"/>
<path d="M55.8358 22.0165C55.9486 21.9037 56.1177 21.8097 56.2682 21.8097C56.832 21.8097 57.1139 22.7683 57.1139 23.7457C56.9636 23.7832 56.4374 23.8585 55.2344 23.9148C55.2907 23.2194 55.4412 22.4488 55.8358 22.0165ZM59.0687 26.2455C58.674 26.6026 58.1477 26.8846 57.4335 26.8846C56.0426 26.8846 55.2344 25.926 55.2344 24.1029H58.9935C59.0311 24.0277 59.0311 23.8961 59.0311 23.6518C59.0311 22.4864 58.1101 21.509 56.3997 21.509C54.5953 21.509 53.0916 22.9938 53.0916 25.1366C53.0916 26.9034 54.257 28.3695 56.0802 28.3695C57.565 28.3695 58.5236 27.5236 59.1063 26.2831L59.0687 26.2455ZM53.8435 21.8473V21.8097H51.3625V21.8473L51.6819 22.0541C52.0016 22.2232 52.2083 22.4113 52.2083 22.5803C52.2083 22.8248 51.8887 23.8772 51.6819 24.4788L51.1557 25.926H51.1181L49.9152 22.6556C49.84 22.4864 49.84 22.2984 49.84 22.2608C49.84 22.1481 49.9152 22.0916 50.2347 22.0165L50.5919 21.9413V21.8286H46.5132V21.9413L46.7575 22.0165C47.1147 22.0916 47.1898 22.1292 47.3966 22.618L49.8776 28.2566H50.4791L52.6781 23.1443C52.9602 22.5051 53.1105 22.3735 53.4675 22.0916L53.8435 21.8473ZM45.7802 27.6928V22.7307C45.7802 22.618 45.7802 21.9978 45.8177 21.4902L45.7802 21.4527L42.9044 22.4113V22.4488L43.2991 22.9375C43.4119 23.1067 43.4119 23.2194 43.4119 23.4637V27.7304C43.4119 27.9371 43.3743 27.9747 43.0548 28.0499L42.8481 28.0874V28.2003H46.3628V28.0874L46.1561 28.0499C45.7802 27.9371 45.7802 27.8995 45.7802 27.6928ZM44.5961 21.0016C45.3478 21.0016 45.9118 20.4376 45.9118 19.7986C45.9118 19.1595 45.3855 18.6333 44.7088 18.6333C43.9194 18.6333 43.3179 19.2347 43.3179 19.8362C43.3179 20.4752 43.9194 21.0016 44.5961 21.0016ZM41.5887 27.0537C41.3068 27.0537 41.0249 27.0161 40.8744 26.8469C40.7241 26.6779 40.6301 26.4523 40.6301 26.0764V22.8435H42.4346L42.5849 21.791H40.6301L40.6677 20.0993H40.6301C39.8407 20.8324 38.6754 21.791 37.4725 22.6743V22.8435H38.2619V26.4334C38.2619 27.1101 38.3747 27.5612 38.7318 27.9184C39.0514 28.2379 39.5212 28.4071 40.2166 28.4071C41.4571 28.4071 42.2465 27.6739 42.7353 26.753L42.6976 26.7155C42.3594 26.9222 41.9646 27.0537 41.5887 27.0537ZM34.5027 21.8473C34.6156 21.8473 34.6532 21.8849 34.747 22.0541L35.6305 23.6705C35.8372 24.0277 35.95 24.0653 36.1567 24.0653C36.6267 24.0653 37.2282 23.6705 37.2282 22.9751C37.2282 22.1292 36.2696 21.5654 34.9538 21.5654C32.7548 21.5654 31.4014 23.257 31.4014 25.1553C31.4014 26.8846 32.5105 28.3882 34.4276 28.3882C35.6681 28.3882 36.6267 27.7492 37.1718 26.5839L37.1342 26.5463C36.777 26.9034 36.3447 27.1101 35.7432 27.1101C34.39 27.1101 33.5065 25.9448 33.5065 24.2532C33.4502 22.6932 34.0516 21.8473 34.5027 21.8473ZM27.4732 22.0165C27.5859 21.9037 27.7551 21.8097 27.9055 21.8097C28.4693 21.8097 28.7513 22.7683 28.7513 23.7457C28.6009 23.7832 28.0747 23.8585 26.8718 23.9148C26.9093 23.2194 27.0785 22.4488 27.4732 22.0165ZM30.706 26.2455C30.3114 26.6026 29.785 26.8846 29.0709 26.8846C27.6799 26.8846 26.8718 25.926 26.8718 24.1029H30.6309C30.6684 24.0277 30.6684 23.8961 30.6684 23.6518C30.6684 22.4864 29.7474 21.509 28.0371 21.509C26.2327 21.509 24.729 22.9938 24.729 25.1366C24.729 26.9034 25.8943 28.3695 27.7175 28.3695C29.2023 28.3695 30.1609 27.5236 30.7436 26.2831L30.706 26.2455ZM23.9208 27.6928V19.7234C23.9208 19.6106 23.9208 18.9904 23.9584 18.4828H23.9208L21.045 19.4039V19.4414L21.4398 19.9301C21.5525 20.0993 21.5525 20.2121 21.5525 20.4565V27.6928C21.5525 27.8995 21.5149 27.9371 21.1955 28.0123L20.9887 28.0499V28.1627H24.5035V28.0499L24.2967 28.0123C23.9584 27.9371 23.9208 27.8995 23.9208 27.6928ZM20.0112 27.6928V19.7234C20.0112 19.6106 20.0113 18.9904 20.049 18.4828L17.1732 19.4039V19.4414L17.5678 19.9301C17.6807 20.0993 17.6807 20.2121 17.6807 20.4565V27.6928C17.6807 27.8995 17.6431 27.9371 17.3235 28.0123L17.1167 28.0499V28.1627H20.6315V28.0499L20.4248 28.0123C20.0865 27.9371 20.0112 27.8995 20.0112 27.6928ZM14.1846 27.6928C14.1095 27.8995 13.9403 28.1439 13.6208 28.1439C12.9065 28.1439 12.5118 26.4899 12.5118 24.7607C12.5118 23.9148 12.5494 22.8999 12.869 22.2984C12.9441 22.0916 13.1133 21.8473 13.4328 21.8473C14.147 21.8473 14.5418 23.5013 14.5418 25.2305C14.5418 26.0764 14.4665 27.0914 14.1846 27.6928ZM13.5832 21.5654C12.5118 21.5654 11.666 21.9225 10.9894 22.618C10.4631 23.1443 10.0308 24.0277 10.0308 25.0426C10.0308 26.7718 11.2713 28.3882 13.414 28.3882C14.4854 28.3882 15.3311 28.0311 16.0078 27.3357C16.534 26.8093 16.9664 25.926 16.9664 24.911C16.9664 23.2194 15.7446 21.5654 13.5832 21.5654ZM7.32422 27.3733C6.79794 27.8995 6.36564 28.1439 5.89576 28.1439C4.46729 28.1439 3.5463 26.0576 3.5463 23.3886C3.5463 20.3625 4.58005 19.0279 5.78298 19.0279C6.30926 19.0279 6.66639 19.1971 7.17386 19.7046C7.73774 20.2685 8.24521 21.1143 8.92185 22.3172H9.03463C8.99703 21.3962 8.88427 19.7422 8.79028 18.8025H8.71511L8.60233 18.9716C8.52715 19.0844 8.48956 19.1408 8.35799 19.1408C8.11364 19.1408 6.83554 18.7836 5.87695 18.7836C2.60651 18.7836 0.802128 20.9639 0.802128 23.7081C0.802128 26.7342 2.83205 28.4258 5.74539 28.4258C6.49721 28.4258 7.73774 28.1814 8.94065 27.6176C9.01583 27.4485 9.29777 25.475 9.33536 24.5164L9.26018 24.4788C8.50836 25.832 7.86929 26.8093 7.32422 27.3733ZM-4.85537 22.0165C-4.7426 21.9037 -4.57344 21.8097 -4.42307 21.8097C-3.8592 21.8097 -3.57727 22.7683 -3.57727 23.7457C-3.72763 23.7832 -4.25391 23.8585 -5.45684 23.9148C-5.41925 23.2194 -5.25007 22.4488 -4.85537 22.0165ZM-1.62251 26.2455C-2.01722 26.6026 -2.5435 26.8846 -3.25773 26.8846C-4.64862 26.8846 -5.45684 25.926 -5.45684 24.1029H-1.69769C-1.66011 24.0277 -1.6601 23.8961 -1.6601 23.6518C-1.6601 22.4864 -2.58109 21.509 -4.2915 21.509C-6.09588 21.509 -7.59954 22.9938 -7.59954 25.1366C-7.59954 26.9034 -6.43422 28.3695 -4.61103 28.3695C-3.12617 28.3695 -2.16759 27.5236 -1.58493 26.2831L-1.62251 26.2455ZM-9.68586 23.5013C-9.40392 23.5013 -8.84006 23.6705 -8.25739 23.99C-7.90028 23.5953 -7.65592 23.0691 -7.65592 22.4676C-7.65592 21.9413 -7.93786 21.509 -8.53932 21.509C-9.25356 21.509 -10.0242 22.3548 -10.3813 23.6893L-10.4565 23.6518L-10.4189 22.524C-10.4189 22.2797 -10.3813 21.9978 -10.3437 21.4338L-10.3813 21.3962L-13.2946 22.3548V22.3924L-12.9 22.8811C-12.7871 22.9938 -12.7871 23.163 -12.7871 23.4074V27.6739C-12.7871 27.8807 -12.8248 27.9184 -13.1443 27.9936L-13.351 28.0311V28.1439H-9.55429V28.0311L-9.9866 27.9936C-10.3437 27.956 -10.3813 27.9184 -10.3813 27.6739V24.1216C-10.2497 23.7832 -10.043 23.5013 -9.68586 23.5013ZM-14.1592 27.6928V22.7307C-14.1592 22.618 -14.1592 21.9978 -14.1216 21.4902H-14.1592L-17.035 22.4113V22.4488L-16.6402 22.9375C-16.5275 23.1067 -16.5275 23.2194 -16.5275 23.4637V27.7304C-16.5275 27.9371 -16.5651 27.9747 -16.8845 28.0499L-17.0913 28.0874V28.2003H-13.5765V28.0874L-13.7833 28.0499C-14.1029 27.9371 -14.1592 27.8995 -14.1592 27.6928ZM-15.3434 21.0016C-14.5915 21.0016 -14.0276 20.4376 -14.0276 19.7986C-14.0276 19.1595 -14.554 18.6333 -15.2305 18.6333C-16.02 18.6333 -16.6215 19.2347 -16.6215 19.8362C-16.6215 20.4752 -16.02 21.0016 -15.3434 21.0016ZM-20.4182 27.2417C-20.5309 27.3169 -20.6249 27.3544 -20.813 27.3544C-21.17 27.3544 -21.4895 26.9974 -21.4895 26.3395C-21.4895 25.9823 -21.4144 25.738 -21.2076 25.5313C-21.0009 25.3245 -20.8505 25.2493 -20.4558 25.005V27.2228H-20.4182V27.2417ZM-17.1477 27.3357C-17.3545 27.4485 -17.4672 27.5049 -17.5801 27.5049C-17.6928 27.5049 -17.8244 27.4672 -17.9372 27.392C-18.0499 27.2793 -18.1439 27.1101 -18.1439 26.659V23.5202C-18.1439 22.8811 -18.2191 22.3924 -18.5763 22.0353C-18.8958 21.7157 -19.422 21.5465 -20.0987 21.5465C-21.2076 21.5465 -22.4857 22.3924 -23.1248 23.0315C-23.4819 23.3886 -23.651 23.6705 -23.651 23.9148C-23.651 24.2344 -23.4067 24.4412 -22.8616 24.4412C-22.4294 24.4412 -21.7903 24.272 -21.5084 24.1216L-21.903 22.7119C-21.7527 22.5427 -21.5835 22.5051 -21.3392 22.5051C-21.0949 22.5051 -20.8693 22.5427 -20.7377 22.7119C-20.5309 22.8811 -20.4558 23.3134 -20.4558 24.1967V24.8734L-21.5647 25.2305C-22.73 25.6253 -23.1248 25.7944 -23.4067 26.1139C-23.6135 26.3207 -23.7262 26.6026 -23.7262 26.8846C-23.7262 27.6176 -23.2 28.2942 -22.2978 28.2942C-21.6587 28.2942 -21.264 28.0499 -20.6625 27.5236L-20.4558 27.3544H-20.4182C-20.1738 27.956 -19.6663 28.313 -18.9333 28.313C-18.0123 28.313 -17.3358 27.6739 -17.0913 27.2981H-17.1477V27.3357ZM-24.6472 27.6928V22.7307C-24.6472 22.618 -24.6472 21.9978 -24.6096 21.4902L-24.6472 21.4527L-27.5229 22.3735V22.4113L-27.1282 22.8999C-27.0155 23.0691 -27.0155 23.1818 -27.0155 23.4262V27.6928C-27.0155 27.8995 -27.0531 27.9371 -27.3726 28.0123L-27.5793 28.0499V28.1627H-24.027V28.0499L-24.2337 28.0123C-24.6472 27.9371 -24.6472 27.8995 -24.6472 27.6928ZM-25.8501 21.0016C-25.0983 21.0016 -24.5345 20.4376 -24.5345 19.7986C-24.5345 19.1595 -25.0607 18.6333 -25.7374 18.6333C-26.5268 18.6333 -27.1282 19.2347 -27.1282 19.8362C-27.1282 20.4752 -26.5268 21.0016 -25.8501 21.0016ZM-28.8387 27.0537C-29.1206 27.0537 -29.4025 27.0161 -29.5528 26.8469C-29.7033 26.6779 -29.7973 26.4523 -29.7973 26.0764V22.8435H-27.9928L-27.8425 21.791H-29.7973L-29.722 20.0617H-29.7596C-30.549 20.7948 -31.7144 21.7533 -32.9173 22.6367V22.8059H-32.1279V26.3958C-32.1279 27.0725 -32.0151 27.5236 -31.658 27.8807C-31.3384 28.2003 -30.8686 28.3695 -30.1731 28.3695C-28.9326 28.3695 -28.1433 27.6364 -27.6545 26.7155L-27.6921 26.6779C-28.0868 26.9222 -28.4815 27.0537 -28.8387 27.0537ZM-35.3796 23.7832C-36.0186 23.4262 -36.4133 23.1067 -36.4133 22.5803C-36.4133 22.2232 -36.169 21.9037 -35.6991 21.9037C-35.2291 21.9037 -34.8156 22.1481 -33.5751 23.8772L-33.5 23.8397C-33.5 23.445 -33.5375 22.2608 -33.5751 21.9789C-34.0075 21.8097 -34.7405 21.5842 -35.6051 21.5842C-37.1275 21.5842 -38.1614 22.4676 -38.1614 23.5953C-38.1614 24.8358 -37.2028 25.3245 -36.2066 25.926C-35.3607 26.4523 -34.9285 26.8093 -34.9285 27.3357C-34.9285 27.7304 -35.1728 28.0687 -35.6426 28.0687C-36.2817 28.0687 -36.9584 27.392 -38.2365 25.7004L-38.3117 25.738C-38.3117 26.3771 -38.1989 27.4296 -38.1049 27.956C-37.5034 28.2003 -36.6764 28.3506 -35.9058 28.3506C-34.2705 28.3506 -33.1616 27.5425 -33.1616 26.1704C-33.1805 25.0426 -34.1766 24.4223 -35.3796 23.7832ZM-42.24 22.0165C-42.1272 21.9037 -41.958 21.8097 -41.8076 21.8097C-41.2438 21.8097 -40.9619 22.7683 -40.9619 23.7457C-41.1122 23.7832 -41.6386 23.8585 -42.8414 23.9148C-42.8038 23.2194 -42.6535 22.4488 -42.24 22.0165ZM-39.0071 26.2455C-39.4019 26.6026 -39.9281 26.8846 -40.6424 26.8846C-42.0332 26.8846 -42.8414 25.926 -42.8414 24.1029H-39.0822C-39.0447 24.0277 -39.0447 23.8961 -39.0447 23.6518C-39.0447 22.4864 -39.9657 21.509 -41.6761 21.509C-43.4805 21.509 -44.9842 22.9938 -44.9842 25.1366C-44.9842 26.9034 -43.8188 28.3695 -41.9956 28.3695C-40.5108 28.3695 -39.5522 27.5236 -38.9695 26.2831L-39.0071 26.2455ZM-43.9128 19.2723L-43.4429 19.0655V18.9904H-47.0328V19.0655L-46.469 19.3099C-45.9051 19.5543 -45.7923 19.6295 -45.7923 19.8738C-45.7923 20.2685 -46.1871 21.603 -46.2622 21.8849L-47.4652 25.6253L-49.3824 20.3625C-49.4951 20.0054 -49.5327 19.7611 -49.5327 19.6295C-49.5327 19.4603 -49.4575 19.3099 -48.9687 19.2347L-48.4989 19.1595V18.9904H-53.6677V19.1031L-53.5174 19.1408C-52.728 19.3099 -52.5964 19.4603 -51.7694 21.5654L-49.0252 28.3695H-48.2733L-45.5293 21.5654C-44.7961 19.9114 -44.6458 19.6295 -43.9128 19.2723Z" fill="black"/>
</svg>
