<svg width="22" height="24" viewBox="0 0 22 24" fill="none" xmlns="http://www.w3.org/2000/svg">
<path d="M5.00024 4.9902V5.0002" stroke="black" stroke-width="2" stroke-linecap="round" stroke-linejoin="round"/>
<path d="M8.00024 4.9902V5.0002" stroke="black" stroke-width="2" stroke-linecap="round" stroke-linejoin="round"/>
<path d="M11.0002 13C11.4802 14.03 12.5272 14.75 13.7502 14.75C14.9732 14.75 16.0202 14.03 16.5002 13" stroke="black" stroke-width="2" stroke-linecap="round" stroke-linejoin="round"/>
<path d="M5.50024 13C5.98024 14.03 7.02724 14.75 8.25024 14.75C9.47324 14.75 10.5202 14.03 11.0002 13" stroke="black" stroke-width="2" stroke-linecap="round" stroke-linejoin="round"/>
<path fill-rule="evenodd" clip-rule="evenodd" d="M21.0002 23H1.00024V3C1.00024 1.896 1.89624 1 3.00024 1H19.0002C20.1042 1 21.0002 1.896 21.0002 3V23Z" stroke="black" stroke-width="2" stroke-linecap="round" stroke-linejoin="round"/>
<path fill-rule="evenodd" clip-rule="evenodd" d="M16.5002 13.5C16.5002 16.537 14.0382 19 11.0002 19C7.96224 19 5.50024 16.537 5.50024 13.5C5.50024 10.463 7.96224 8 11.0002 8C14.0382 8 16.5002 10.463 16.5002 13.5Z" stroke="black" stroke-width="2" stroke-linecap="round" stroke-linejoin="round"/>
</svg>
